<mxfile host="app.diagrams.net" modified="2023-01-11T10:38:41.275Z" agent="5.0 (Windows NT 10.0; Win64; x64) AppleWebKit/537.36 (KHTML, like Gecko) Chrome/108.0.0.0 Safari/537.36" etag="sl6JYhvvChrYFcofhGVW" version="18.1.2" type="github">
  <diagram id="cscgULMorEWweV5o1cmK" name="Page-1">
    <mxGraphModel dx="782" dy="478" grid="1" gridSize="10" guides="1" tooltips="1" connect="1" arrows="1" fold="1" page="1" pageScale="1" pageWidth="827" pageHeight="1169" math="0" shadow="0">
      <root>
        <mxCell id="0" />
        <mxCell id="1" parent="0" />
        <mxCell id="6lb_3juoY8B4Fd8s0ci2-3" value="" style="sketch=0;pointerEvents=1;shadow=0;dashed=0;html=1;strokeColor=none;fillColor=#505050;labelPosition=center;verticalLabelPosition=bottom;verticalAlign=top;outlineConnect=0;align=center;shape=mxgraph.office.servers.domain_controller;" vertex="1" parent="1">
          <mxGeometry x="320" y="120" width="45" height="55" as="geometry" />
        </mxCell>
        <mxCell id="6lb_3juoY8B4Fd8s0ci2-4" value="" style="sketch=0;pointerEvents=1;shadow=0;dashed=0;html=1;strokeColor=none;fillColor=#505050;labelPosition=center;verticalLabelPosition=bottom;verticalAlign=top;outlineConnect=0;align=center;shape=mxgraph.office.servers.domain_controller;" vertex="1" parent="1">
          <mxGeometry x="389" y="110" width="45" height="55" as="geometry" />
        </mxCell>
        <mxCell id="6lb_3juoY8B4Fd8s0ci2-5" value="" style="sketch=0;pointerEvents=1;shadow=0;dashed=0;html=1;strokeColor=none;fillColor=#505050;labelPosition=center;verticalLabelPosition=bottom;verticalAlign=top;outlineConnect=0;align=center;shape=mxgraph.office.servers.domain_controller;" vertex="1" parent="1">
          <mxGeometry x="110" y="290" width="45" height="55" as="geometry" />
        </mxCell>
      </root>
    </mxGraphModel>
  </diagram>
</mxfile>
